<svg width="20" height="20" viewBox="0 0 20 20" fill="none" xmlns="http://www.w3.org/2000/svg">
<path d="M9.99984 1.66663C14.6023 1.66663 18.3332 5.39746 18.3332 9.99996C18.3332 14.6025 14.6023 18.3333 9.99984 18.3333C5.39734 18.3333 1.6665 14.6025 1.6665 9.99996C1.6665 5.39746 5.39734 1.66663 9.99984 1.66663ZM12.9457 6.98413L8.82067 11.1091L7.054 9.34163C6.97663 9.2642 6.88477 9.20277 6.78366 9.16085C6.68255 9.11893 6.57417 9.09733 6.46472 9.09729C6.24366 9.09721 6.03162 9.18495 5.87525 9.34121C5.71889 9.49747 5.631 9.70944 5.63092 9.9305C5.63084 10.1516 5.71858 10.3636 5.87484 10.52L8.17317 12.8183C8.2583 12.9035 8.35937 12.971 8.47061 13.0171C8.58185 13.0632 8.70109 13.0869 8.8215 13.0869C8.94192 13.0869 9.06115 13.0632 9.1724 13.0171C9.28364 12.971 9.38471 12.9035 9.46984 12.8183L14.1248 8.16329C14.2812 8.00693 14.3691 7.79485 14.3691 7.57371C14.3691 7.35257 14.2812 7.14049 14.1248 6.98413C13.9685 6.82776 13.7564 6.73991 13.5353 6.73991C13.3141 6.73991 13.102 6.82776 12.9457 6.98413Z" fill="#669900"/>
</svg>
