<svg width="32" height="32" viewBox="0 0 32 32" fill="none" xmlns="http://www.w3.org/2000/svg">
<rect width="32" height="32" rx="8" fill="#F1F1F1"/>
<path d="M12.7004 11.7573C12.5754 11.6322 12.4058 11.562 12.229 11.562C12.0522 11.562 11.8827 11.6322 11.7576 11.7573C11.6326 11.8823 11.5624 12.0519 11.5624 12.2287C11.5624 12.4055 11.6326 12.5751 11.7576 12.7001L12.229 13.1715C12.3541 13.2965 12.5236 13.3667 12.7004 13.3667C12.8773 13.3667 13.0468 13.2965 13.1718 13.1715C13.2969 13.0465 13.3671 12.8769 13.3671 12.7001C13.3671 12.5233 13.2969 12.3537 13.1718 12.2287L12.7004 11.7573ZM15.0575 14.1143C14.9324 13.9893 14.7629 13.919 14.5861 13.919C14.4092 13.919 14.2397 13.9893 14.1147 14.1143C13.9896 14.2393 13.9194 14.4089 13.9194 14.5857C13.9194 14.7625 13.9896 14.9321 14.1147 15.0571L14.5861 15.5285C14.7111 15.6535 14.8807 15.7238 15.0575 15.7238C15.2343 15.7238 15.4038 15.6535 15.5289 15.5285C15.6539 15.4035 15.7241 15.2339 15.7241 15.0571C15.7241 14.8803 15.6539 14.7107 15.5289 14.5857L15.0575 14.1143ZM16.4717 16.4713C16.5967 16.3463 16.7663 16.2761 16.9431 16.2761C17.1199 16.2761 17.2895 16.3463 17.4145 16.4713L17.8859 16.9427C18.0109 17.0677 18.0812 17.2373 18.0812 17.4141C18.0812 17.5909 18.0109 17.7605 17.8859 17.8855C17.7609 18.0106 17.5913 18.0808 17.4145 18.0808C17.2377 18.0808 17.0681 18.0106 16.9431 17.8855L16.4717 17.4141C16.3467 17.2891 16.2764 17.1195 16.2764 16.9427C16.2764 16.7659 16.3467 16.5963 16.4717 16.4713ZM19.7715 18.8283C19.6465 18.7033 19.4769 18.6331 19.3001 18.6331C19.1233 18.6331 18.9537 18.7033 18.8287 18.8283C18.7037 18.9534 18.6334 19.1229 18.6334 19.2997C18.6334 19.4766 18.7037 19.6461 18.8287 19.7712L19.3001 20.2426C19.4251 20.3676 19.5947 20.4378 19.7715 20.4378C19.9483 20.4378 20.1179 20.3676 20.2429 20.2426C20.3679 20.1175 20.4382 19.948 20.4382 19.7712C20.4382 19.5943 20.3679 19.4248 20.2429 19.2997L19.7715 18.8283ZM12.5053 18.5521L12.5053 17.4952C12.5068 17.4067 12.4907 17.3188 12.4579 17.2366C12.4251 17.1543 12.3762 17.0795 12.3142 17.0163C12.2521 16.9532 12.1781 16.9031 12.0965 16.8688C12.0149 16.8346 11.9272 16.817 11.8387 16.817C11.7502 16.817 11.6626 16.8346 11.5809 16.8688C11.4993 16.9031 11.4253 16.9532 11.3632 17.0163C11.3012 17.0795 11.2523 17.1543 11.2195 17.2366C11.1867 17.3188 11.1706 17.4067 11.1721 17.4952L11.1721 20.1615C11.1722 20.3382 11.2424 20.5078 11.3674 20.6328C11.4924 20.7578 11.6619 20.828 11.8387 20.828L14.5055 20.8285C14.6823 20.8284 14.8519 20.7581 14.9769 20.633C15.1019 20.5079 15.1721 20.3383 15.172 20.1615C15.172 19.9846 15.1016 19.815 14.9765 19.69C14.8515 19.565 14.6818 19.4948 14.505 19.4949L13.4481 19.4949L15.0575 17.8855C15.1825 17.7605 15.2527 17.5909 15.2527 17.4141C15.2527 17.2373 15.1825 17.0677 15.0575 16.9427C14.9324 16.8177 14.7629 16.7475 14.5861 16.7475C14.4093 16.7475 14.2397 16.8177 14.1147 16.9427L12.5053 18.5521ZM16.9431 15.0571C16.8181 14.9321 16.7478 14.7625 16.7478 14.5857C16.7478 14.4089 16.8181 14.2393 16.9431 14.1143L18.5525 12.5049H17.4956C17.4071 12.5065 17.3191 12.4904 17.2369 12.4575C17.1547 12.4247 17.0798 12.3759 17.0167 12.3138C16.9536 12.2518 16.9034 12.1778 16.8692 12.0962C16.8349 12.0145 16.8173 11.9269 16.8173 11.8384C16.8173 11.7498 16.8349 11.6622 16.8692 11.5806C16.9034 11.4989 16.9536 11.4249 17.0167 11.3629C17.0798 11.3008 17.1547 11.252 17.2369 11.2192C17.3191 11.1864 17.4071 11.1703 17.4956 11.1718L20.1623 11.1713C20.3391 11.1713 20.5086 11.2416 20.6336 11.3666C20.7586 11.4916 20.8288 11.6611 20.8289 11.8379L20.8289 14.5051C20.8288 14.6819 20.7585 14.8515 20.6334 14.9765C20.5083 15.1015 20.3387 15.1717 20.1618 15.1717C19.985 15.1716 19.8154 15.1013 19.6904 14.9762C19.5654 14.8511 19.4952 14.6815 19.4953 14.5046V13.4477L17.8859 15.0571C17.7609 15.1821 17.5913 15.2524 17.4145 15.2524C17.2377 15.2524 17.0681 15.1821 16.9431 15.0571Z" fill="#414141"/>
</svg>
