<svg width="28" height="28" viewBox="0 0 28 28" fill="none" xmlns="http://www.w3.org/2000/svg">
<rect width="28" height="28" rx="8" fill="#F3F3F3"/>
<g clip-path="url(#clip0_370_4956)">
<path d="M6.12309 14.0613C6.11559 13.111 7.13334 12.571 7.90734 13.0068L7.99209 13.0593L10.0006 14.4123C11.0686 15.1323 10.4041 16.7718 9.17559 16.5985L9.07284 16.5798L8.99109 16.5618C9.45228 17.4621 10.1476 18.2215 11.0039 18.7601C11.8602 19.2986 12.8458 19.5964 13.8571 19.6221C14.8683 19.6478 15.8678 19.4005 16.7504 18.9062C17.633 18.4118 18.366 17.6888 18.8723 16.813C18.9461 16.685 19.0444 16.5727 19.1615 16.4827C19.2787 16.3926 19.4124 16.3265 19.5551 16.2881C19.6978 16.2498 19.8467 16.2399 19.9932 16.259C20.1397 16.2782 20.281 16.326 20.4091 16.3998C20.5371 16.4736 20.6494 16.5718 20.7394 16.689C20.8295 16.8061 20.8956 16.9399 20.934 17.0826C20.9724 17.2253 20.9822 17.3741 20.9631 17.5207C20.9439 17.6672 20.8961 17.8085 20.8223 17.9365C19.0846 20.9515 15.4831 22.5505 11.9611 21.6063C10.2967 21.1603 8.8245 20.1808 7.77004 18.8181C6.71557 17.4553 6.13704 15.7843 6.12309 14.0613ZM7.17759 10.0638C8.91459 7.04804 12.5161 5.44979 16.0381 6.39254C17.7025 6.83856 19.1747 7.818 20.2291 9.18078C21.2836 10.5436 21.8621 12.2145 21.8761 13.9375C21.8836 14.8878 20.8658 15.4278 20.0918 14.9928L20.0071 14.9403L17.9986 13.5865C16.9306 12.8673 17.5951 11.2278 18.8228 11.401L18.9263 11.4198L19.0073 11.437C18.546 10.5368 17.8506 9.77752 16.9942 9.23911C16.1378 8.70071 15.1521 8.40306 14.1409 8.3775C13.1296 8.35195 12.1302 8.59941 11.2477 9.09387C10.3652 9.58833 9.63231 10.3115 9.12609 11.1873C9.05453 11.3194 8.95722 11.4359 8.83992 11.5298C8.72261 11.6237 8.58769 11.6931 8.4431 11.734C8.29851 11.7749 8.1472 11.7865 7.99809 11.7679C7.84897 11.7494 7.70508 11.7012 7.57491 11.6261C7.44474 11.5511 7.33092 11.4507 7.24018 11.3309C7.14944 11.2112 7.0836 11.0744 7.04657 10.9288C7.00953 10.7832 7.00205 10.6316 7.02455 10.483C7.04705 10.3345 7.09909 10.1919 7.17759 10.0638Z" fill="#414141"/>
</g>
<defs>
<clipPath id="clip0_370_4956">
<rect width="18" height="18" fill="white" transform="translate(5 5)"/>
</clipPath>
</defs>
</svg>
