<svg width="16" height="16" viewBox="0 0 16 16" fill="none" xmlns="http://www.w3.org/2000/svg">
<g clip-path="url(#clip0_390_5592)">
<path d="M11.3333 4C11.1565 4 10.9869 4.07024 10.8619 4.19526C10.7369 4.32029 10.6667 4.48986 10.6667 4.66667C10.6667 4.84348 10.7369 5.01305 10.8619 5.13807C10.9869 5.2631 11.1565 5.33333 11.3333 5.33333H12.3907L9.33333 8.39067L6.80466 5.862C6.67964 5.73702 6.5101 5.66681 6.33333 5.66681C6.15655 5.66681 5.98701 5.73702 5.86199 5.862L1.52866 10.1953C1.46499 10.2568 1.4142 10.3304 1.37926 10.4117C1.34432 10.4931 1.32593 10.5805 1.32516 10.6691C1.32439 10.7576 1.34126 10.8454 1.37478 10.9273C1.4083 11.0092 1.4578 11.0837 1.5204 11.1463C1.58299 11.2089 1.65743 11.2584 1.73936 11.2919C1.82129 11.3254 1.90907 11.3423 1.99759 11.3415C2.08611 11.3407 2.17359 11.3223 2.25493 11.2874C2.33627 11.2525 2.40983 11.2017 2.47133 11.138L6.33333 7.276L8.86199 9.80467C8.98701 9.92965 9.15655 9.99986 9.33333 9.99986C9.5101 9.99986 9.67964 9.92965 9.80466 9.80467L13.3333 6.276V7.33333C13.3333 7.51014 13.4036 7.67971 13.5286 7.80474C13.6536 7.92976 13.8232 8 14 8C14.1768 8 14.3464 7.92976 14.4714 7.80474C14.5964 7.67971 14.6667 7.51014 14.6667 7.33333V4.66667C14.6667 4.48986 14.5964 4.32029 14.4714 4.19526C14.3464 4.07024 14.1768 4 14 4H11.3333Z" fill="#3266CC"/>
</g>
<defs>
<clipPath id="clip0_390_5592">
<rect width="16" height="16" fill="white"/>
</clipPath>
</defs>
</svg>
